[Header]
FileType HTR
DataType HTRS
FileVersion 1
NumSegments 22
NumFrames 5
DataFrameRate 24
EulerRotationOrder ZYX
CalibrationUnits mm
RotationUnits Degrees
GlobalAxisofGravity Y
BoneLengthAxis Y
ScaleFactor 1.0
[SegmentNames&Hierarchy]
reference	GLOBAL
Hips	reference
Spine	Hips
Spine1	Spine
Neck	Spine1
Head	Neck
LeftShoulder	Spine1
LeftArm	LeftShoulder
LeftForeArm	LeftArm
LeftHand	LeftForeArm
RightShoulder	Spine1
RightArm	RightShoulder
RightForeArm	RightArm
RightHand	RightForeArm
LeftUpLeg	Hips
LeftLeg	LeftUpLeg
LeftFoot	LeftLeg
LeftToeBase	LeftFoot
RightUpLeg	Hips
RightLeg	RightUpLeg
RightFoot	RightLeg
RightToeBase	RightFoot
[BasePosition]
reference	0	0	0	0	0	0	1
Hips	0	0	0	0	0	0	1
Spine	0	0	0	0	-0	90	1
Spine1	0	0	0	0	0	0	1
Neck	0	0	0	-7.352430803	-7.352430803	90	1
Head	0	0	0	0	-0	90	1
LeftShoulder	0	0	0	0	0	0	1
LeftArm	0	0	0	0	0	0	1
LeftForeArm	0	0	0	0	0	0	1
LeftHand	0	0	0	0	0	0	1
RightShoulder	0	0	0	0	-0	180	1
RightArm	0	0	0	0	-0	180	1
RightForeArm	0	0	0	0	-0	180	1
RightHand	0	0	0	0	-0	180	1
LeftUpLeg	0	0	0	0	-0	-90	1
LeftLeg	0	0	0	0	-0	-90	1
LeftFoot	0	0	0	66.57150701	-66.57150701	-90	1
LeftToeBase	0	0	0	0	-90	0	1
RightUpLeg	0	0	0	0	-0	-90	1
RightLeg	0	0	0	0	-0	-90	1
RightFoot	0	0	0	66.57150701	-66.57150701	-90	1
RightToeBase	0	0	0	0	-90	0	1
[reference]
10	0	0	0	0	-0	0	1.0
11	0	0	0	0	-0	0	1.0
12	0	0	0	0	-0	0	1.0
13	0	0	0	0	-0	0	1.0
14	0	0	0	0	-0	0	1.0
[Hips]
10	5.907721519	8.508910179	0.9712001681	6.259270668	-102.7438812	-6.9061203	1.0
11	5.871315479	8.508910179	0.9767799973	7.109397411	-102.739563	-7.880079269	1.0
12	5.834388256	8.501821518	0.9823441505	7.72238636	-103.304718	-8.318101883	1.0
13	5.801850319	8.494028091	0.9878823757	7.219558716	-103.5788498	-8.020477295	1.0
14	5.773034096	8.486315727	0.9933844209	6.412071705	-103.5895691	-7.557543278	1.0
[Spine]
10	0	0.7478299737	0	-7.811553478	-3.683029175	-90.78472137	1.0
11	0	0.7478299737	0	-7.48332119	-3.568780661	-90.70210266	1.0
12	0	0.7478299737	0	-7.745329857	-3.044318676	-90.65324402	1.0
13	0	0.7478299737	0	-7.833158016	-2.491423845	-90.45516205	1.0
14	0	0.7478299737	0	-7.771852493	-2.458152771	-90.43847656	1.0
[Spine1]
10	0	2.049309969	0	9.799879074	-1.058410406	-1.963199377	1.0
11	0	2.049309969	0	8.436079979	-1.026992202	-2.381023169	1.0
12	0	2.049309969	0	7.85088253	-0.8245007992	-2.39749074	1.0
13	0	2.049309969	0	7.692642212	-0.6382037401	-2.710961342	1.0
14	0	2.049309969	0	7.751609802	-0.6245362163	-2.629007816	1.0
[Neck]
10	0	2.231709957	0	0.3672434986	9.243810654	-84.49479675	1.0
11	0	2.231709957	0	1.473272562	9.077669144	-84.25617981	1.0
12	0	2.231709957	0	2.68878293	8.931209564	-84.83696747	1.0
13	0	2.231709957	0	3.504510403	8.973298073	-84.72166443	1.0
14	0	2.231709957	0	3.543968678	8.801588058	-84.82839966	1.0
[Head]
10	0	1.413589954	0.1823999882	-11.70600319	2.504503965	-98.73584747	1.0
11	0	1.413589954	0.1823999882	-10.6801033	2.484279156	-98.61421967	1.0
12	0	1.413589954	0.1823999882	-11.13047218	2.276566982	-97.62719727	1.0
13	0	1.413589954	0.1823999882	-12.26060963	2.283089876	-97.56794739	1.0
14	0	1.413589954	0.1823999882	-11.83746338	2.124842167	-97.2830658	1.0
[LeftShoulder]
10	0.3649300039	1.825889945	-0.04271000251	-10.84564304	-7.0054636	2.853175879	1.0
11	0.3649300039	1.825889945	-0.04271000251	-9.887142181	-6.738704205	3.03943491	1.0
12	0.3649300039	1.825889945	-0.04271000251	-11.09416866	-6.858013153	3.145252228	1.0
13	0.3649300039	1.825889945	-0.04271000251	-11.05504322	-7.092756748	3.818586111	1.0
14	0.3649300039	1.825889945	-0.04271000251	-10.71076775	-6.600390911	3.504730225	1.0
[LeftArm]
10	1.24003005	0	0	37.87710571	9.949400902	-84.43780518	1.0
11	1.24003005	0	0	35.56629944	9.871482849	-84.39386749	1.0
12	1.24003005	0	0	35.99265671	10.87905216	-82.29124451	1.0
13	1.24003005	0	0	36.26676559	10.29777813	-81.6883316	1.0
14	1.24003005	0	0	36.13731384	9.563644409	-81.52688599	1.0
[LeftForeArm]
10	2.847419977	0	0	-15.84236336	-11.14250565	-3.252215624	1.0
11	2.847419977	0	0	-14.97502422	-10.99831867	-3.079829454	1.0
12	2.847419977	0	0	-15.10245514	-11.62718201	-5.194035053	1.0
13	2.847419977	0	0	-13.12419796	-11.0663166	-6.398849964	1.0
14	2.847419977	0	0	-11.81309795	-10.41983604	-6.946634769	1.0
[LeftHand]
10	2.258270025	0	0	-15.23019981	-8.151530266	-13.00093079	1.0
11	2.258270025	0	0	-14.38184929	-7.839028358	-12.92736149	1.0
12	2.258270025	0	0	-14.63439655	-8.226922035	-13.79472637	1.0
13	2.258270025	0	0	-12.68662643	-8.085893631	-14.87882996	1.0
14	2.258270025	0	0	-11.50325108	-7.348282814	-14.61336803	1.0
[RightShoulder]
10	-0.3646599948	1.825889945	-0.04271000251	-7.49681282	4.511622429	179.3540649	1.0
11	-0.3646599948	1.825889945	-0.04271000251	-7.699014187	4.2636199	178.7096252	1.0
12	-0.3646599948	1.825889945	-0.04271000251	-8.051482201	4.826372623	177.4267426	1.0
13	-0.3646599948	1.825889945	-0.04271000251	-8.020385742	4.678291321	177.360733	1.0
14	-0.3646599948	1.825889945	-0.04271000251	-7.708943367	4.713049412	177.6596832	1.0
[RightArm]
10	-1.24003005	0	0	42.12551117	-3.845050812	-95.82681274	1.0
11	-1.24003005	0	0	43.4429245	-3.326648474	-97.16449738	1.0
12	-1.24003005	0	0	42.99136353	-3.84565115	-97.21367645	1.0
13	-1.24003005	0	0	42.59095764	-3.628201962	-97.26134491	1.0
14	-1.24003005	0	0	43.24293518	-3.350468397	-97.12503052	1.0
[RightForeArm]
10	-2.847419977	0	0	3.242438555	16.17380333	181.3049164	1.0
11	-2.847419977	0	0	4.373562813	16.18045998	183.0152588	1.0
12	-2.847419977	0	0	3.224636555	15.8174572	182.5780334	1.0
13	-2.847419977	0	0	3.012640953	14.60639858	182.859314	1.0
14	-2.847419977	0	0	2.640557289	13.84526539	182.7998352	1.0
[RightHand]
10	-2.258270025	0	0	3.818410635	10.59273911	188.2003174	1.0
11	-2.258270025	0	0	4.65464735	10.35806656	187.8111267	1.0
12	-2.258270025	0	0	3.755514622	9.746044159	190.4208679	1.0
13	-2.258270025	0	0	3.556976318	9.267543793	191.1983795	1.0
14	-2.258270025	0	0	3.118222713	8.989535332	190.3710785	1.0
[LeftUpLeg]
10	0.9119900465	0	0	2.151772976	-1.84071517	89.81685638	1.0
11	0.9119900465	0	0	3.190217733	-2.042755127	89.26037598	1.0
12	0.9119900465	0	0	3.5646348	-2.807181358	89.08189392	1.0
13	0.9119900465	0	0	4.259013176	-2.414475918	89.02866364	1.0
14	0.9119900465	0	0	4.852249146	-1.401694298	88.91040039	1.0
[LeftLeg]
10	0	-4.371409893	0	6.039979935	-1.712714434	88.37876129	1.0
11	0	-4.371409893	0	4.445457458	-0.2659754455	88.42508698	1.0
12	0	-4.371409893	0	3.917310238	-0.3209798038	88.16014862	1.0
13	0	-4.371409893	0	3.30901432	-0.7114100456	87.9924469	1.0
14	0	-4.371409893	0	3.007831573	-0.5332723856	88.27885437	1.0
[LeftFoot]
10	0	-3.918009996	0	-100.7127151	114.3033524	-44.80266953	1.0
11	0	-3.918009996	0	-102.8561783	114.1262741	-47.98152924	1.0
12	0	-3.918009996	0	-100.9274139	114.4759521	-45.50378418	1.0
13	0	-3.918009996	0	-100.1862411	114.5835419	-45.02507019	1.0
14	0	-3.918009996	0	-102.7209473	114.1847839	-47.81803894	1.0
[LeftToeBase]
10	0	-0.5927900076	1.367989898	0	0	0	1.0
11	0	-0.5927900076	1.367989898	0	0	0	1.0
12	0	-0.5927900076	1.367989898	0	0	0	1.0
13	0	-0.5927900076	1.367989898	0	0	0	1.0
14	0	-0.5927900076	1.367989898	0	0	0	1.0
[RightUpLeg]
10	-0.9119900465	0	0	10.77768326	-18.08399582	89.003479	1.0
11	-0.9119900465	0	0	10.92638397	-18.25411606	88.44236755	1.0
12	-0.9119900465	0	0	10.81280518	-18.04519844	88.1867981	1.0
13	-0.9119900465	0	0	11.14657879	-18.72058868	87.85980988	1.0
14	-0.9119900465	0	0	11.45263386	-18.27268982	87.71686554	1.0
[RightLeg]
10	0	-4.371409893	0	-3.052026033	-8.082005501	93.84140015	1.0
11	0	-4.371409893	0	-2.651860237	-7.372907639	93.29388428	1.0
12	0	-4.371409893	0	-2.35924077	-7.101749897	93.20539856	1.0
13	0	-4.371409893	0	-2.222085238	-6.720142365	93.00236511	1.0
14	0	-4.371409893	0	-1.991141558	-6.849121571	92.99282837	1.0
[RightFoot]
10	0	-3.918009996	0	29.15225601	64.83552551	77.90262604	1.0
11	0	-3.918009996	0	29.04705048	64.41482544	78.13051605	1.0
12	0	-3.918009996	0	28.24471664	64.30010986	78.04069519	1.0
13	0	-3.918009996	0	29.76675034	64.34716034	79.57033539	1.0
14	0	-3.918009996	0	29.29986954	64.0385437	79.19563293	1.0
[RightToeBase]
10	0	-0.5927900076	1.367989898	0	0	0	1.0
11	0	-0.5927900076	1.367989898	0	0	0	1.0
12	0	-0.5927900076	1.367989898	0	0	0	1.0
13	0	-0.5927900076	1.367989898	0	0	0	1.0
14	0	-0.5927900076	1.367989898	0	0	0	1.0
[EndOfFile]
